HIERARCHY
ROOT joint_Root
{
	OFFSET 0.0 0.0 0.0
	CHANNELS 6 Xposition Yposition Zposition Zrotation Xrotation Yrotation 
	JOINT Hips
	{
		OFFSET -0.726466 93.3139 -2.00062
		CHANNELS 6 Xposition Yposition Zposition Zrotation Xrotation Yrotation 
		JOINT Spine
		{
			OFFSET 15.7357 0.0 0.0
			CHANNELS 6 Xposition Yposition Zposition Zrotation Xrotation Yrotation 
			JOINT Chest
			{
				OFFSET 8.98455 -0.406207 0.0
				CHANNELS 6 Xposition Yposition Zposition Zrotation Xrotation Yrotation 
				JOINT Neck
				{
					OFFSET 16.3773 0.0 0.0
					CHANNELS 6 Xposition Yposition Zposition Zrotation Xrotation Yrotation 
					JOINT Head
					{
						OFFSET 6.45672 0.0 0.0
						CHANNELS 6 Xposition Yposition Zposition Zrotation Xrotation Yrotation 
						End Site
						{
							OFFSET 0.0 0.0 0.0
						}
					}
				}
				JOINT Shoulder_L
				{
					OFFSET 12.9942 -0.242716 4.98039
					CHANNELS 6 Xposition Yposition Zposition Zrotation Xrotation Yrotation 
					JOINT UpperArm_L
					{
						OFFSET 5.34809 0.0 0.0
						CHANNELS 6 Xposition Yposition Zposition Zrotation Xrotation Yrotation 
						JOINT LowerArm_L
						{
							OFFSET 24.3286 1.87007e-05 0.0
							CHANNELS 6 Xposition Yposition Zposition Zrotation Xrotation Yrotation 
							JOINT Hand_L
							{
								OFFSET 22.2916 0.0 0.0
								CHANNELS 6 Xposition Yposition Zposition Zrotation Xrotation Yrotation 
								End Site
								{
									OFFSET 0.0 0.0 0.0
								}
							}
						}
					}
				}
				JOINT Shoulder_R
				{
					OFFSET 12.9945 -0.242716 -4.98039
					CHANNELS 6 Xposition Yposition Zposition Zrotation Xrotation Yrotation 
					JOINT UpperArm_R
					{
						OFFSET -5.34813 0.0 0.0
						CHANNELS 6 Xposition Yposition Zposition Zrotation Xrotation Yrotation 
						JOINT LowerArm_R
						{
							OFFSET -24.3289 0.000322201 0.0
							CHANNELS 6 Xposition Yposition Zposition Zrotation Xrotation Yrotation 
							JOINT Hand_R
							{
								OFFSET -22.2915 -0.000108084 0.0
								CHANNELS 6 Xposition Yposition Zposition Zrotation Xrotation Yrotation 
								End Site
								{
									OFFSET 0.0 0.0 0.0
								}
							}
						}
					}
				}
			}
		}
		JOINT UpperLeg_L
		{
			OFFSET -2.19248 -6.46944 0.0
			CHANNELS 6 Xposition Yposition Zposition Zrotation Xrotation Yrotation 
			JOINT LowerLeg_L
			{
				OFFSET 39.0811 0.0 -1.23785e-05
				CHANNELS 6 Xposition Yposition Zposition Zrotation Xrotation Yrotation 
				JOINT Foot_L
				{
					OFFSET 40.9854 0.0 -1.26872e-05
					CHANNELS 6 Xposition Yposition Zposition Zrotation Xrotation Yrotation 
					JOINT Toes_L
					{
						OFFSET 11.7543 0.0 0.0
						CHANNELS 6 Xposition Yposition Zposition Zrotation Xrotation Yrotation 
						End Site
						{
							OFFSET 0.0 0.0 0.0
						}
					}
				}
			}
		}
		JOINT UpperLeg_R
		{
			OFFSET -2.19251 6.46944 0.0
			CHANNELS 6 Xposition Yposition Zposition Zrotation Xrotation Yrotation 
			JOINT LowerLeg_R
			{
				OFFSET -39.0811 -0.00228153 -0.0401928
				CHANNELS 6 Xposition Yposition Zposition Zrotation Xrotation Yrotation 
				JOINT Foot_R
				{
					OFFSET -40.9854 0.0 0.0
					CHANNELS 6 Xposition Yposition Zposition Zrotation Xrotation Yrotation 
					JOINT Toes_R
					{
						OFFSET -11.7543 0.0 0.0
						CHANNELS 6 Xposition Yposition Zposition Zrotation Xrotation Yrotation 
						End Site
						{
							OFFSET 0.0 0.0 0.0
						}
					}
				}
			}
		}
	}
}
MOTION
Frames:	6
Frame Time:	0.0333333
0.000000 0.000000 0.000000 0.000000 0.000000 -0.000000 -0.815856 92.449700 -1.528940 88.097200 0.171542 4.233940 15.735700 0.000005 -0.000001 85.568200 85.506100 -84.902300 8.984550 -0.406207 -0.000000 1.199600 -0.732337 1.338410 16.377300 -0.000001 -0.000001 2.647270 -2.636650 0.861397 6.456720 -0.000001 -0.000000 5.896830 -3.483520 -1.338740 12.994200 -0.242716 4.980390 -89.779000 -0.667302 -71.677900 5.348090 -0.000007 -0.000001 -70.684700 38.897300 -11.608500 24.328600 0.000019 0.000005 1.307170 3.178740 -22.366800 22.291600 -0.000001 0.000005 5.559610 5.477080 -5.636930 12.994500 -0.242716 -4.980390 88.336500 5.330350 -72.639300 -5.348130 -0.000001 -0.000004 -67.086700 38.265100 -14.293400 -24.328900 0.000322 -0.000009 3.044710 9.551440 -17.779000 -22.291500 -0.000108 -0.000004 6.275260 5.334060 -0.897749 -2.192480 -6.469440 -0.000000 -175.292000 -7.015810 -2.931910 39.081100 -0.000007 -0.000012 -0.101003 0.246352 22.293500 40.985400 -0.000006 -0.000013 -0.012301 5.210530 -65.369100 11.754300 -0.000000 0.000003 -0.000042 -0.000487 -16.596500 -2.192510 6.469440 -0.000001 -179.890000 14.682300 179.813000 -39.081100 -0.002282 -0.040193 -0.034166 0.109884 18.838100 -40.985400 0.000008 0.000006 3.620310 7.379850 -64.984300 -11.754300 -0.000006 -0.000006 -0.009021 -0.096168 -20.490200
0.000000 0.000000 0.000000 0.000000 0.000000 -0.000000 -0.816487 92.444600 -1.518670 88.082800 0.186958 4.229180 15.735700 0.000005 -0.000001 85.427000 85.495400 -84.787000 8.984550 -0.406207 -0.000000 1.219180 -0.754526 1.286950 16.377300 -0.000001 -0.000001 2.595740 -2.532180 0.798334 6.456720 -0.000001 -0.000000 5.889980 -3.365870 -1.215630 12.994200 -0.242716 4.980390 -89.749600 -0.754250 -71.633500 5.348090 -0.000007 -0.000001 -70.805900 38.686500 -11.549000 24.328600 0.000019 0.000005 1.423750 3.459170 -22.387200 22.291600 -0.000001 0.000005 5.662330 5.478600 -5.694800 12.994500 -0.242716 -4.980390 88.317700 5.380240 -72.607800 -5.348130 -0.000001 -0.000004 -66.712100 36.894100 -14.725600 -24.328900 0.000322 -0.000009 3.571900 10.128800 -19.546400 -22.291500 -0.000108 -0.000004 2.399040 5.304740 -0.039702 -2.192480 -6.469440 -0.000000 -175.280000 -6.992130 -2.950020 39.081100 -0.000007 -0.000012 -0.100746 0.245208 22.335800 40.985400 -0.000006 -0.000013 -0.009319 5.211990 -65.400000 11.754300 -0.000000 0.000003 -0.000047 -0.000538 -16.598500 -2.192510 6.469440 -0.000001 -179.872000 14.671600 179.803000 -39.081100 -0.002282 -0.040193 -0.035106 0.112495 18.860900 -40.985400 0.000008 0.000006 3.615070 7.331880 -65.000100 -11.754300 -0.000006 -0.000006 -0.009005 -0.096048 -20.485300
0.000000 0.000000 0.000000 0.000000 0.000000 -0.000000 -0.815884 92.442800 -1.527010 88.107200 0.108057 4.302000 15.735700 0.000005 -0.000001 85.127700 85.444200 -84.530900 8.984550 -0.406207 -0.000000 1.317220 -0.807104 1.201750 16.377300 -0.000001 -0.000001 2.573060 -2.381380 0.772922 6.456720 -0.000001 -0.000000 5.841390 -3.141380 -1.135100 12.994200 -0.242716 4.980390 -89.702200 -0.896471 -71.624400 5.348090 -0.000007 -0.000001 -70.969600 38.417800 -11.506400 24.328600 0.000019 0.000005 1.412820 3.443920 -22.320800 22.291600 -0.000001 0.000005 5.719390 5.480990 -5.786340 12.994500 -0.242716 -4.980390 88.246500 5.536620 -72.396000 -5.348130 -0.000001 -0.000004 -65.996900 33.023800 -15.654600 -24.328900 0.000322 -0.000009 4.210460 9.792570 -23.416500 -22.291500 -0.000108 -0.000004 -3.198910 5.264610 1.062640 -2.192480 -6.469440 -0.000000 -175.292000 -7.057180 -2.869550 39.081100 -0.000007 -0.000012 -0.100750 0.245295 22.329600 40.985400 -0.000006 -0.000013 -0.011736 5.197750 -65.394500 11.754300 -0.000000 0.000003 -0.000042 -0.000483 -16.596300 -2.192510 6.469440 -0.000001 -179.900000 14.479500 179.859000 -39.081100 -0.002282 -0.040193 -0.035315 0.112938 18.887100 -40.985400 0.000008 0.000006 3.547170 7.268740 -64.998000 -11.754300 -0.000006 -0.000006 -0.009051 -0.096403 -20.499800
0.000000 0.000000 0.000000 0.000000 0.000000 -0.000000 -0.781225 92.446500 -1.577770 88.092000 -0.095243 4.303030 15.735700 0.000005 -0.000001 84.406500 85.433200 -83.826300 8.984550 -0.406207 -0.000000 1.329170 -0.922402 1.170170 16.377300 -0.000001 -0.000001 2.663380 -2.217270 0.744091 6.456720 -0.000001 -0.000000 5.865430 -2.793150 -1.154350 12.994200 -0.242716 4.980390 -89.668600 -0.995911 -71.594200 5.348090 -0.000007 -0.000001 -71.212000 38.075700 -11.316700 24.328600 0.000019 0.000005 1.434850 3.509400 -22.253800 22.291600 -0.000001 0.000005 5.703920 5.479960 -5.746550 12.994500 -0.242716 -4.980390 88.165100 5.632270 -71.922600 -5.348130 -0.000001 -0.000004 -64.404200 28.623300 -17.772200 -24.328900 0.000322 -0.000009 4.440690 7.872910 -29.566300 -22.291500 -0.000108 -0.000004 -5.758910 5.223380 2.126860 -2.192480 -6.469440 -0.000000 -175.295000 -7.229600 -2.883260 39.081100 -0.000007 -0.000012 -0.100211 0.243833 22.341800 40.985400 -0.000006 -0.000013 0.010099 5.157830 -65.379500 11.754300 -0.000000 0.000003 -0.000037 -0.000430 -16.594300 -2.192510 6.469440 -0.000001 -179.886000 14.378700 179.787000 -39.081100 -0.002282 -0.040193 -0.034476 0.110312 18.914400 -40.985400 0.000008 0.000006 3.582730 7.332640 -64.956000 -11.754300 -0.000006 -0.000006 -0.008992 -0.095948 -20.481200
0.000000 0.000000 0.000000 0.000000 0.000000 -0.000000 -0.727406 92.449400 -1.615210 88.094100 -0.369268 4.324000 15.735700 0.000005 -0.000001 83.669500 85.445000 -83.122900 8.984550 -0.406207 -0.000000 1.293880 -1.034910 1.103900 16.377300 -0.000001 -0.000001 2.884630 -2.092190 0.798020 6.456720 -0.000001 -0.000000 5.937960 -2.445460 -1.190950 12.994200 -0.242716 4.980390 -89.661500 -1.016230 -71.573200 5.348090 -0.000007 -0.000001 -71.246600 37.926300 -11.167200 24.328600 0.000019 0.000005 1.442770 3.537700 -22.203400 22.291600 -0.000001 0.000005 5.581250 5.475940 -5.593840 12.994500 -0.242716 -4.980390 88.153100 5.526300 -71.487800 -5.348130 -0.000001 -0.000004 -62.553300 23.945800 -20.637900 -24.328900 0.000322 -0.000009 5.812660 7.359310 -38.463100 -22.291500 -0.000108 -0.000004 -3.362340 5.210890 2.444010 -2.192480 -6.469440 -0.000000 -175.324000 -7.386500 -2.836500 39.081100 -0.000007 -0.000012 -0.099821 0.243037 22.329100 40.985400 -0.000006 -0.000013 0.027241 5.053550 -65.377400 11.754300 -0.000000 0.000003 -0.000039 -0.000460 -16.595500 -2.192510 6.469440 -0.000001 -179.934000 14.233300 179.760000 -39.081100 -0.002282 -0.040193 -0.036980 0.117558 18.923700 -40.985400 0.000008 0.000006 3.486820 7.484160 -64.897600 -11.754300 -0.000006 -0.000006 -0.009014 -0.096113 -20.488000
0.000000 0.000000 0.000000 0.000000 0.000000 -0.000000 -0.677993 92.448800 -1.655370 88.057900 -0.634018 4.385230 15.735700 0.000005 -0.000001 83.413800 85.457500 -82.902800 8.984550 -0.406207 -0.000000 1.264150 -1.070520 1.032920 16.377300 -0.000001 -0.000001 3.031260 -2.054410 0.856400 6.456720 -0.000001 -0.000000 6.183310 -2.307750 -1.186500 12.994200 -0.242716 4.980390 -89.664100 -1.007350 -71.558500 5.348090 -0.000007 -0.000001 -71.099900 37.972600 -11.268300 24.328600 0.000019 0.000005 1.497720 3.722490 -21.934900 22.291600 -0.000001 0.000005 5.657920 5.477040 -5.635560 12.994500 -0.242716 -4.980390 88.227500 5.186270 -71.101500 -5.348130 -0.000001 -0.000004 -61.024900 18.630500 -24.161200 -24.328900 0.000322 -0.000009 9.539270 8.225390 -49.575100 -22.291500 -0.000108 -0.000004 1.513460 5.190520 2.947120 -2.192480 -6.469440 -0.000000 -175.297000 -7.543010 -2.771610 39.081100 -0.000007 -0.000012 -0.102706 0.249592 22.367000 40.985400 -0.000006 -0.000013 0.032647 4.936150 -65.401900 11.754300 -0.000000 0.000003 -0.000048 -0.000547 -16.598800 -2.192510 6.469440 -0.000001 -179.964000 14.156000 179.789000 -39.081100 -0.002282 -0.040193 -0.039022 0.123570 18.915600 -40.985400 0.000008 0.000006 3.388990 7.713750 -64.836000 -11.754300 -0.000006 -0.000006 -0.008987 -0.095906 -20.479500
